<?xml version="1.0" encoding="UTF-8"?>
<svg xmlns="http://www.w3.org/2000/svg" version="1.1" viewBox="0 0 1920 1080" preserveAspectRatio="xMidYMid slice">
  <defs>
    <style>
      .cls-1 {
        fill: #222228;
      }

      .cls-2 {
        fill: #282a32;
      }

      .cls-3 {
        fill: #b7c4e4;
      }

      .cls-4 {
        fill: #fed500;
      }

      .cls-5 {
        fill: #007ac1;
      }

      .cls-6 {
        fill: #0078c1;
      }
    </style>
  </defs>
  <!-- Generator: Adobe Illustrator 28.7.1, SVG Export Plug-In . SVG Version: 1.2.0 Build 142)  -->
  <g>
    <g id="Layer_1">
      <path class="cls-2" d="M1920,1080H0V0h1920v1080Z"/>
      <path class="cls-1" d="M0,194.8c9.6,8.2,74.8,62,179.6,60.1,109.7-2,172.9-63.3,181.1-71.5,10.2,8.6,90.6,74.1,214.3,66.9,145-8.5,213.3-108.9,217-114.5,2.8,3.5,57.1,69.1,159.2,68.2,101.7-.9,154.2-66.8,157-70.5,4.2,7.3,55.1,92.5,173.3,108.6,95.7,13.1,195.4-24.6,247.3-94.8,15.4,3.8,71,16,131.8-4.6,40.9-13.9,64.9-36,75.5-47.4,80,9.2,152.7-33.5,145.1-95.4H0v194.8Z"/>
      <path class="cls-3" d="M1326.9,130.3c-.1-.8-1-6,2.4-10,3.4-4.1,9.8-5.3,15.4-2.7,1.5-6.4,7-11,13.3-11.4,6.9-.4,13.4,4.3,15.2,11.4.5,0,5.4-.6,8.9,3.2,3.6,4,2.5,9,2.4,9.4-19.2,0-38.4,0-57.6,0Z"/>
      <path class="cls-4" d="M1415.2,96.5c9.2-1.3,11-2.1,12.3-12.2,1.2,8.4,2.1,11.4,12.2,12.1-9.5,1.3-11.1,2.9-12.2,12.4-1-8.3-1.9-11.4-12.3-12.3Z"/>
      <path class="cls-6" d="M1395,104.3c5.8-.9,7-1.3,7.8-7.8.7,5.3,1.3,7.3,7.7,7.7-6,.8-7.1,1.9-7.7,7.9-.6-5.3-1.2-7.3-7.8-7.8Z"/>
      <path class="cls-3" d="M289.7,151.5c-.2-1.1-1.3-7.9,3.2-13.3,4.6-5.4,13-7,20.5-3.6,2-8.4,9.3-14.6,17.6-15.1,9.2-.6,17.8,5.7,20.1,15.1.6,0,7.1-.8,11.8,4.3,4.8,5.3,3.4,11.9,3.2,12.5-25.5,0-51,0-76.5,0Z"/>
      <path class="cls-4" d="M235.7,99.9c11-1.6,13.3-2.5,14.8-14.7,1.4,10.1,2.5,13.7,14.7,14.6-11.4,1.6-13.4,3.5-14.7,14.9-1.2-10-2.3-13.7-14.8-14.8Z"/>
      <path class="cls-5" d="M268.2,112.3c6.8-1,8.2-1.6,9.1-9.1.9,6.2,1.6,8.4,9,9-7,1-8.2,2.2-9,9.2-.7-6.1-1.4-8.4-9.1-9.1Z"/>
    </g>
  </g>
</svg>