<?xml version="1.0" encoding="utf-8"?>
<svg xmlns="http://www.w3.org/2000/svg" viewBox="0 0 24 24">
  <defs>
    <style>
      .cls-1 { fill: currentColor; }
    </style>
  </defs>

  <g id="brand" data-name="brand">
    <path class="cls-1" d="M19,5.4c-1.8-1.9-4.2-3-7-3s-5.2,1.1-6.9,2.9l7.1,2.6,6.8-2.5Z"/>
    
    <path class="cls-1" d="
      M20.6,7.8
      C20.9,7.1 20.8,6.2 20.3,5.8
      L12.1,8.8 3.8,5.7
      C3.3,6.1 3.2,6.9 3.4,7.6
      C2.7,8.9 2.3,10.4 2.3,12
      C2.3,17.3 6.6,21.6 11.9,21.6
      C17.2,21.6 21.5,17.3 21.5,12
      C21.5,9.608 20.6,7.8 20.6,7.8 Z

      M16,16.2
      C14.9,16.2 13.9,15.8 13.1,15.2
      L12.1,17.4 11,15.2
      C10.2,15.9 9.2,16.3 8.1,16.3
      C5.6,16.3 3.5,14.3 3.5,11.7
      C3.5,10.417 3.9,9.6 4.5,8.8
      L7.4,9.7
      C6.8,10 6.3,10.6 6.3,11.4
      C6.3,12.2 7.1,13.3 8.2,13.3
      C9.3,13.3 10.1,12.5 10.1,11.4
      C10.1,10.986 10,10.7 9.8,10.4
      L11.9,11 14.2,10.3
      C14,10.6 13.9,10.9 13.9,11.2
      C13.9,12.2 14.7,13.1 15.8,13.1
      C16.9,13.1 17.7,12.3 17.7,11.2
      C17.7,10.214 17.106,9.668 16.7,9.5
      L19.4,8.7
      C20.1,9.5 20.4,10.5 20.4,11.6
      C20.4,14.1 18.4,16.2 15.8,16.2
      Z
    "/>
  </g>
</svg>