<?xml version="1.0" encoding="utf-8"?>
<svg width="800px" height="800px" viewBox="-3 0 262 262" xmlns="http://www.w3.org/2000/svg" preserveAspectRatio="xMidYMid">
  <path d="M 255.937 131.778 C 255.937 61.118 198.657 3.839 127.999 3.839 C 57.34 3.839 0.063 61.118 0.063 131.778 C 0.063 195.636 46.845 248.564 108.007 258.162 L 108.007 168.759 L 75.523 168.759 L 75.523 131.778 L 108.007 131.778 L 108.007 103.591 C 108.007 71.526 127.108 53.814 156.332 53.814 C 170.33 53.814 184.971 56.313 184.971 56.313 L 184.971 87.799 L 168.838 87.799 C 152.945 87.799 147.989 97.661 147.989 107.779 L 147.989 131.778 L 183.471 131.778 L 177.8 168.759 L 147.989 168.759 L 147.989 258.162 C 209.151 248.564 255.937 195.636 255.937 131.778 Z" fill="#1778F2" style="stroke-width: 10.917;"/>
</svg>