<svg
  xmlns="http://www.w3.org/2000/svg"
  width="24"
  height="24"
  viewBox="0 0 24 24"
  fill="currentColor"
>
  <path d="
    M5.52 20.596
    V15.46
    q0-.404.189-.768.189-.363.537-.58
    l1.196-.783
    q.175 1.754.454 3.036t.906 2.91
    zm4.051-1.788
    q-.605-1.535-.934-3.144t-.33-3.277
    q0-2.645.902-4.859.9-2.214 2.791-3.928
    q1.89 1.714 2.791 3.928t.901 4.859
    q0 1.661-.329 3.268-.328 1.607-.934 3.153
    zm3.495-6.742
    q.434-.433.434-1.066t-.434-1.066T12 9.5t-1.066.434
    Q10.5 10.367 10.5 11t.434 1.066T12 12.5t1.066-.434
    m5.396 8.53
    l-3.283-1.302
    q.627-1.627.906-2.919t.454-3.046
    l1.196.802
    q.348.217.537.58.19.364.19.768
    z
  " />
</svg>