<svg viewBox="0 0 160 140" width="160" height="140" fill="none" xmlns="http://www.w3.org/2000/svg">
  <circle cx="80" cy="70" r="65" fill="#dde3f7"/>
  <circle cx="52" cy="50" r="16" fill="#7986cb"/>
  <path d="M28 105c0-13 11-21 24-21s24 8 24 21" fill="#5c6bc0"/>
  <circle cx="108" cy="50" r="16" fill="#a5b4c8"/>
  <path d="M84 105c0-13 11-21 24-21s24 8 24 21" fill="#8fa0b4"/>
  <circle cx="80" cy="44" r="19" fill="#fff" stroke="#dde3f7" stroke-width="3"/>
  <circle cx="80" cy="44" r="16" fill="#9fa8da"/>
  <path d="M54 108c0-14 12-23 26-23s26 9 26 23" fill="#7986cb"/>
  <rect x="62" y="78" width="36" height="28" rx="3" fill="#ffd54f"/>
  <rect x="62" y="75" width="36" height="9" rx="2" fill="#ffb300"/>
  <line x1="80" y1="75" x2="80" y2="106" stroke="#ff8f00" stroke-width="2.5"/>
  <path d="M80 75 C76 70 70 72 72 76 C74 80 80 75 80 75Z" fill="#ef9a9a"/>
  <path d="M80 75 C84 70 90 72 88 76 C86 80 80 75 80 75Z" fill="#ef9a9a"/>
</svg>