<svg xmlns="http://www.w3.org/2000/svg"
     width="24"
     height="24"
     viewBox="0 0 24 24">
  <path
    fill="currentColor"
    d="M11.99 2
       C6.47 2 2 6.48 2 12
       s4.47 10 9.99 10
       C17.52 22 22 17.52 22 12
       S17.52 2 11.99 2
       m6.93 6h-2.95
       a15.7 15.7 0 0 0-1.38-3.56
       A8.03 8.03 0 0 1 18.92 8
       M12 4.04
       c.83 1.2 1.48 2.53 1.91 3.96
       h-3.82
       c.43-1.43 1.08-2.76 1.91-3.96
       M4.26 14
       C4.1 13.36 4 12.69 4 12
       s.1-1.36.26-2
       h3.38
       c-.08.66-.14 1.32-.14 2
       s.06 1.34.14 2
       z
       m.82 2h2.95
       c.32 1.25.78 2.45 1.38 3.56
       A8 8 0 0 1 5.08 16
       m2.95-8H5.08
       a8 8 0 0 1 4.33-3.56
       A15.7 15.7 0 0 0 8.03 8
       M12 19.96
       c-.83-1.2-1.48-2.53-1.91-3.96
       h3.82
       c-.43 1.43-1.08 2.76-1.91 3.96
       M14.34 14H9.66
       c-.09-.66-.16-1.32-.16-2
       s.07-1.35.16-2
       h4.68
       c.09.65.16 1.32.16 2
       s-.07 1.34-.16 2
       m.25 5.56
       c.6-1.11 1.06-2.31 1.38-3.56
       h2.95
       a8.03 8.03 0 0 1-4.33 3.56
       M16.36 14
       c.08-.66.14-1.32.14-2
       s-.06-1.34-.14-2
       h3.38
       c.16.64.26 1.31.26 2
       s-.1 1.36-.26 2
       z"/>
</svg>