<?xml version="1.0" encoding="utf-8"?>
<svg xmlns="http://www.w3.org/2000/svg" height="24px" viewBox="0 -960 960 960" width="24px" fill="currentColor">
  <path d="M 368.22 -214.34 C 333.12 -229.5 302.47 -250.16 276.27 -276.36 C 250.07 -302.55 229.39 -333.19 214.25 -368.25 C 199.1 -403.35 191.53 -440.7 191.53 -480.37 C 191.53 -520 199.1 -557.25 214.25 -592.1 C 229.39 -626.95 250.07 -657.46 276.27 -683.64 C 302.47 -709.85 333.12 -730.5 368.22 -745.63 C 403.31 -760.78 440.69 -768.36 480.36 -768.36 C 520.02 -768.36 557.28 -760.78 592.14 -745.63 C 626.99 -730.5 657.53 -709.85 683.73 -683.64 C 709.93 -657.46 730.6 -626.95 745.75 -592.1 C 760.89 -557.25 768.47 -520 768.47 -480.37 C 768.47 -440.7 760.89 -403.35 745.75 -368.25 C 730.6 -333.19 709.93 -302.55 683.73 -276.36 C 657.53 -250.16 626.99 -229.5 592.14 -214.34 C 557.28 -199.22 520.02 -191.65 480.36 -191.65 C 440.69 -191.65 403.31 -199.22 368.22 -214.34 Z M 480 -250.76 C 492.5 -268.06 503.32 -286.08 512.45 -304.82 C 521.59 -323.57 529.04 -343.51 534.81 -364.65 L 425.19 -364.65 C 430.96 -343.51 438.41 -323.57 447.54 -304.82 C 456.68 -286.08 467.5 -268.06 480 -250.76 Z M 405 -262.3 C 396.34 -278.15 388.77 -294.62 382.28 -311.68 C 375.79 -328.74 370.38 -346.4 366.05 -364.65 L 280.96 -364.65 C 294.9 -340.63 312.33 -319.73 333.24 -301.94 C 354.15 -284.17 378.07 -270.94 405 -262.3 Z M 555 -262.3 C 581.92 -270.94 605.84 -284.17 626.75 -301.94 C 647.67 -319.73 665.1 -340.63 679.04 -364.65 L 593.94 -364.65 C 589.62 -346.4 584.21 -328.74 577.72 -311.68 C 571.23 -294.62 563.65 -278.15 555 -262.3 Z M 256.44 -422.32 L 354.51 -422.32 C 353.07 -431.94 351.99 -441.44 351.27 -450.81 C 350.55 -460.18 350.19 -469.9 350.19 -480 C 350.19 -490.1 350.55 -499.81 351.27 -509.19 C 351.99 -518.55 353.07 -528.05 354.51 -537.66 L 256.44 -537.66 C 254.03 -528.05 252.23 -518.55 251.03 -509.19 C 249.82 -499.81 249.22 -490.1 249.22 -480 C 249.22 -469.9 249.82 -460.18 251.03 -450.81 C 252.23 -441.44 254.03 -431.94 256.44 -422.32 Z M 412.21 -422.32 L 547.79 -422.32 C 549.23 -431.94 550.31 -441.44 551.03 -450.81 C 551.75 -460.18 552.12 -469.9 552.12 -480 C 552.12 -490.1 551.75 -499.81 551.03 -509.19 C 550.31 -518.55 549.23 -528.05 547.79 -537.66 L 412.21 -537.66 C 410.77 -528.05 409.68 -518.55 408.96 -509.19 C 408.24 -499.81 407.88 -490.1 407.88 -480 C 407.88 -469.9 408.24 -460.18 408.96 -450.81 C 409.68 -441.44 410.77 -431.94 412.21 -422.32 Z M 605.48 -422.32 L 703.56 -422.32 C 705.96 -431.94 707.77 -441.44 708.97 -450.81 C 710.17 -460.18 710.77 -469.9 710.77 -480 C 710.77 -490.1 710.17 -499.81 708.97 -509.19 C 707.77 -518.55 705.96 -528.05 703.56 -537.66 L 605.48 -537.66 C 606.92 -528.05 608.01 -518.55 608.73 -509.19 C 609.45 -499.81 609.81 -490.1 609.81 -480 C 609.81 -469.9 609.45 -460.18 608.73 -450.81 C 608.01 -441.44 606.92 -431.94 605.48 -422.32 Z M 593.94 -595.35 L 679.04 -595.35 C 665.1 -619.38 647.67 -640.27 626.75 -658.05 C 605.84 -675.84 581.92 -689.05 555 -697.71 C 563.65 -681.85 571.23 -665.38 577.72 -648.33 C 584.21 -631.26 589.62 -613.61 593.94 -595.35 Z M 425.19 -595.35 L 534.81 -595.35 C 529.04 -616.49 521.59 -636.42 512.45 -655.17 C 503.32 -673.91 492.5 -691.93 480 -709.24 C 467.5 -691.93 456.68 -673.91 447.54 -655.17 C 438.41 -636.42 430.96 -616.49 425.19 -595.35 Z M 280.96 -595.35 L 366.05 -595.35 C 370.38 -613.61 375.79 -631.26 382.28 -648.33 C 388.77 -665.38 396.34 -681.85 405 -697.71 C 378.07 -689.05 354.15 -675.84 333.24 -658.05 C 312.33 -640.27 294.9 -619.38 280.96 -595.35 Z" style="stroke-width: 1;"/>
</svg>