<?xml version="1.0" encoding="utf-8"?>
<svg xmlns="http://www.w3.org/2000/svg" viewBox="0 0 500 500">
  <g style="" transform="matrix(2.165041, 0, 0, 2.165041, -321.080205, -305.262669)">
    <path style="vector-effect: non-scaling-stroke; fill: currentColor;" d="M 184.59 298.117 C 177.136 292.534 175.934 281.2 175.699 273.061 C 174.77 240.879 201.493 220.512 215.231 212.442 C 232.131 175.873 268.264 159.35 292.086 159.098 L 276.491 175.889 L 281.651 175.532 L 263.361 191.967 L 268.195 191.777 L 256.593 202.754 C 258.186 202.209 267.02 202.83 266.951 203.107 C 277.44 188.983 298.039 167.071 333.396 166.228 C 332.668 167.26 320.431 180.489 317.698 182.553 L 325.33 180.928 C 325.307 182.567 312.315 197.791 310.653 198.702 L 314.918 198.979 C 311.676 205.79 300.94 215.926 300.438 215.675 C 327.474 234.424 325.083 277.901 315.168 295.486 C 312.757 277.088 305.708 264.698 300.438 259.051 C 301.57 281.386 291.763 308.251 263.307 323.624 L 271.451 302.112 C 259.652 317.282 242.871 321.52 227.993 325.1 C 200.182 333.099 187.727 332.701 184.818 353.837 C 179.147 340.859 171.886 316.767 221.23 301.889 C 253.725 293.903 279.012 258.763 248.813 237.222 C 234.023 236.978 191.888 264.84 186.657 271.024 C 181.957 275.455 180.242 289.951 184.59 298.117 Z M 249.783 234.022 C 298.621 251.465 267.971 311.962 227.075 322.814 C 239.618 323.087 267.956 309.837 274.421 290.683 C 275.997 301.195 275.202 302.719 271.199 312.645 C 290.159 293.7 297.654 256.304 286.718 246.568 C 300.102 252.6 309.324 263.465 314.93 285.245 C 314.533 275.615 311.309 259.98 306.401 251.857 C 281.891 211.292 242.868 223.559 232.356 227.13 C 201.973 237.451 180.291 260.058 179.893 281.133 C 181.434 274.591 184.58 270.371 184.603 270.332 C 188.385 263.937 234.867 232.41 249.783 234.022 Z M 294.734 211.508 C 298.354 210.314 302.087 208.387 311.838 200.648 L 300.799 201.843 C 305.604 199.461 322.327 183.037 322.53 182.986 C 322.733 182.935 308.948 186.87 308.948 186.87 L 326.686 170.616 C 309.73 174.101 287.766 189.458 280.913 206.537 C 285.783 207.014 294.837 211.457 294.734 211.508 Z M 247.353 203.359 L 261.971 194.249 L 256.787 194.395 L 275.907 177.827 L 269.283 179.234 L 285.408 163.547 C 273.742 164.94 243.741 185.714 235.587 205.887 L 247.353 203.359 Z"/>
    <path style="vector-effect: non-scaling-stroke; fill: currentColor;" d="M 194.103 281.133 C 192.402 276.712 194.536 264.504 211.528 258.845 C 216.87 257.066 224.271 255.946 224.929 252.6 C 225.298 257.994 224.859 271.012 208.08 274.144 C 201.611 275.373 192.628 279.658 194.103 281.133 Z"/>
  </g>
</svg>