<svg
  xmlns="http://www.w3.org/2000/svg"
  width="24"
  height="24"
  viewBox="0 0 24 24"
>
  <g fill="none" fill-rule="evenodd">
    <path d="
      m12.594 23.258l-.012.002-.071.035-.02.004-.014-.004-.071-.036
      q-.016-.004-.024.006l-.004.01-.017.428.005.02.01.013.104.074
      .015.004.012-.004.104-.074.012-.016.004-.017-.017-.427
      q-.004-.016-.016-.018

      m.264-.113l-.014.002-.184.093-.01.01-.003.011.018.43.005.012
      .008.008.201.092q.019.005.029-.008l.004-.014-.034-.614
      q-.005-.019-.02-.022

      m-.715.002a.02.02 0 0 0-.027.006l-.006.014-.034.614
      q.001.018.017.024l.015-.002.201-.093.01-.008.003-.011.018-.43
      -.003-.012-.01-.01z
    "/>

    <path
      fill="currentColor"
      d="
        M17.991 6.01
        5.399 10.563
        l4.195 2.428
        l3.699-3.7
        a1 1 0 0 1 1.414 1.415
        l-3.7 3.7
        l2.43 4.194
        L17.99 6.01
        z

        m.323-2.244
        c1.195-.433 2.353.725 1.92 1.92
        l-5.282 14.605
        c-.434 1.198-2.07 1.344-2.709.241
        l-3.217-5.558
        l-5.558-3.217
        c-1.103-.639-.957-2.275.241-2.709
        z
      "
    />
  </g>
</svg>