<?xml version="1.0" encoding="utf-8"?>
<svg xmlns="http://www.w3.org/2000/svg" version="1.1" viewBox="0 0 1280 1280">
  <g>
    <g id="container">
      <g id="settings">
        <g transform="matrix(1.081755, 0, 0, 1.081755, -52.287739, -52.485485)" style="">
          <path id="cmp_1" d="M575.3,1095.8c-38.6,0-74.9-27.9-74.9-72.9l-4.8-36.4-4.8-36.5c-2.6-.9-12.6-5.1-15-6.2-2.4-1.2-11.8-6.1-14.1-7.4-2.3-1.3-11.3-6.8-13.5-8.3-2.2-1.4-11.1-7.3-13.2-8.8l-35.4,14.2-35.4,14.3c-30.9,17.8-80.8,18.6-103.5-25.6l-32.7-54.1-32.7-54.1c-14.1-43.4-23.6-61.2,28.6-98.6l30.6-22.2,30.6-22.2c-.2-1.3-1.2-14.1-1.2-15.4v-30.7c0-1.3,1-14.1,1.2-15.4l-30.6-22.2-30.6-22.2c-34.3-22.3-48.5-52.8-28.6-98.6l32.7-54.1,32.7-54.1c16.7-32.4,67-44.6,103.5-25.6l70.8,28.5c.7-2.9,51.6-31.6,55.9-30.8l9.5-72.9c-.3-46.4,28.5-70.8,74.9-73h130.8c45.2,3.2,70,29.8,74.9,73l9.5,72.9c5.8-1.1,55.6,28,55.9,30.8l70.8-28.5c47.3-15.4,78.5-6.4,103.5,25.6l65.4,108.2c18.8,43.3,10.5,83.1-28.5,98.6l-30.6,22.2-30.6,22.2c.2,1.4,1.2,14.2,1.2,15.4v30.7c0,1.2-2,14.1-2.4,15.4l30.6,22.2,30.6,22.2c35,33.4,45.5,59.4,28.5,98.6l-32.7,54.1-32.7,54.1c-17.6,33.2-53.6,45.1-102.9,25.6l-35.1-14.3-35.1-14.2c-2.2,1.5-11.1,7.4-13.4,8.8-2.3,1.4-11.6,7-14,8.3-2.4,1.3-11.9,6.3-14.3,7.4-2.4,1.1-11.9,5.3-14.3,6.2l-4.8,36.5-4.8,36.4c0,45.4-26.3,72.9-74.9,72.9h-130.8ZM589.3,974.5c.8,13.7,9,28.9,27.4,30.2h47c15-1.4,26-12.6,27.7-30.2l12.5-90.6c6.1-1.5,46.8-15.9,52.3-18.5,5.5-2.6,26.5-14.3,31.5-17.6,5-3.3,37.9-29.3,42.3-33.4l88.3,35c19.2,7.9,29.9,7.6,41-7.7l23.2-38.7c9-15.5,6.4-23.3-14-37.9l-76.7-55.5c1-2.7,7.9-30.7,8.3-33.6.4-2.9,2.1-23.8,2.2-26.8,0-3,0-15.1,0-18.1-.1-3-1.8-23.9-2.2-26.8-.4-2.9-7.3-31-8.3-33.6l76.7-55.6c15.3-11.4,22.5-20,14-37.9l-23.2-38.7c-9.4-14.5-19.7-16-41-7.4l-88.3,35.9c-4.4-4.4-37.2-31.2-42.3-34.5-5-3.3-26-15.1-31.5-17.7-5.5-2.5-46.1-16.9-52.3-18.5l-11.6-90.6c-.6-16.6-9.2-28-27.4-30.2h-47c-18.1,2.7-23.3,10.7-27.7,30.2l-12.5,90.6c-6.1,1.5-46.8,15.9-52.3,18.5-5.5,2.6-26.5,14.4-31.5,17.6-5,3.2-37.9,29.3-42.3,33.4l-88.3-35c-13.6-6.5-26.6-11.9-41,7.7l-23.2,38.7c-9.8,18.7-.2,30.3,14,37.6l76.7,54.7c-1,2.9-7.9,31.3-8.3,34.2-.4,2.8-2.1,23.8-2.2,26.9,0,3.1-.1,15.6,0,18.6.1,3,1.8,23.4,2.2,26.3.4,2.9,7.3,31.3,8.3,34.2l-76.7,55.5c-15.7,14.7-19.8,17.9-14,37.9l23.2,38.7c9.5,20,23.6,15.3,41,7.4l88.3-35.9c4.4,4.4,37.2,31.2,42.3,34.5,5,3.3,26,15.1,31.5,17.7,5.5,2.6,46.2,17,52.3,18.5l11.6,90.6ZM609.4,796.6c-10.8-1.9-21.1-4.9-31-8.8-9.9-3.9-19.3-8.8-28.2-14.6-8.9-5.9-17.4-12.7-25.5-20.5-8-7.8-15.1-16-21.1-24.5-6-8.6-11-17.6-15-27-4-9.4-7-19.2-9-29.4-2-10.2-3-20.8-3-31.8s1-21.6,3-31.8c2-10.2,5-20,9-29.4,4-9.4,9-18.4,15-27,6-8.6,13-16.8,21.1-24.6,8-7.8,16.5-14.6,25.5-20.4,8.9-5.9,18.4-10.7,28.2-14.6,9.9-3.9,20.2-6.8,31-8.7,10.8-2,22-2.9,33.7-2.9s22.6.9,33.2,2.9c10.7,1.9,20.9,4.9,30.7,8.7,9.8,3.9,19.2,8.8,28.2,14.6,9,5.8,17.5,12.7,25.6,20.4,8.1,7.8,15.2,16,21.3,24.6,6.1,8.6,11.2,17.6,15.2,27,4.1,9.4,7.1,19.2,9.1,29.4,2,10.2,3,20.8,3,31.8s-1,21.6-3,31.8c-2,10.2-5.1,20-9.1,29.4-4.1,9.4-9.1,18.4-15.2,27-6.1,8.6-13.2,16.8-21.3,24.5-8.1,7.8-16.7,14.6-25.6,20.5-9,5.8-18.4,10.7-28.2,14.6-9.8,3.9-20,6.8-30.7,8.8-10.7,1.9-21.7,2.9-33.2,2.9s-22.9-1-33.7-2.9ZM640,565.5c-43.1,0-78,33.4-78,74.5s34.9,74.5,78,74.5,78-33.4,78-74.5-34.9-74.5-78-74.5Z"/>
        </g>
      </g>
    </g>
  </g>
</svg>