<svg
  xmlns="http://www.w3.org/2000/svg"
  width="24"
  height="24"
  viewBox="0 0 24 24"
  fill="currentColor"
>
  <path d="
    M12 4
    a8 8 0 1 1 .001 16.001
    A8 8 0 0 1 12 4

    m0 1.5
    a6.5 6.5 0 1 0-.001 13.001
    A6.5 6.5 0 0 0 12 5.5

    m.75 11
    h-1.5
    V15
    h1.5
    z

    m-.445-9.234
    a3 3 0 0 1 .445 5.89
    V14
    h-1.5
    v-1.25
    c0-.57.452-.958.917-1.01
    A1.5 1.5 0 0 0 12 8.75
    a1.5 1.5 0 0 0-1.5 1.5
    H9
    a3 3 0 0 1 3.305-2.984
  "/>
</svg>